<svg width="167" height="59" viewBox="0 0 167 59" fill="none" xmlns="http://www.w3.org/2000/svg">
<path d="M74.8726 38.7896V15.8833H90.5757V19.7583H79.4976V25.1802H89.0601V29.0552H79.4976V38.7896H74.8726ZM94.3726 19.9458V15.8833H98.7632V19.9458H94.3726ZM94.3726 38.7896V22.1958H98.7632V38.7896H94.3726ZM103.279 38.7896V15.8833H107.669V38.7896H103.279ZM110.263 22.1958H112.701V20.9458C112.701 19.55 112.847 18.5083 113.138 17.8208C113.44 17.1333 113.987 16.576 114.779 16.1489C115.581 15.7114 116.591 15.4927 117.81 15.4927C119.06 15.4927 120.284 15.6802 121.482 16.0552L120.888 19.1177C120.19 18.951 119.518 18.8677 118.873 18.8677C118.237 18.8677 117.779 19.0187 117.498 19.3208C117.227 19.6125 117.091 20.1802 117.091 21.0239V22.1958H120.373V25.6489H117.091V38.7896H112.701V25.6489H110.263V22.1958ZM121.826 30.2583C121.826 28.8 122.185 27.3885 122.904 26.0239C123.623 24.6593 124.638 23.6177 125.951 22.8989C127.274 22.1802 128.748 21.8208 130.373 21.8208C132.883 21.8208 134.94 22.6385 136.544 24.2739C138.149 25.8989 138.951 27.9562 138.951 30.4458C138.951 32.9562 138.138 35.0396 136.513 36.6958C134.899 38.3416 132.862 39.1646 130.404 39.1646C128.883 39.1646 127.43 38.8208 126.044 38.1333C124.669 37.4458 123.623 36.4406 122.904 35.1177C122.185 33.7843 121.826 32.1646 121.826 30.2583ZM126.326 30.4927C126.326 32.1385 126.716 33.3989 127.498 34.2739C128.279 35.1489 129.242 35.5864 130.388 35.5864C131.534 35.5864 132.492 35.1489 133.263 34.2739C134.044 33.3989 134.435 32.1281 134.435 30.4614C134.435 28.8364 134.044 27.5864 133.263 26.7114C132.492 25.8364 131.534 25.3989 130.388 25.3989C129.242 25.3989 128.279 25.8364 127.498 26.7114C126.716 27.5864 126.326 28.8468 126.326 30.4927ZM140.294 38.7896L146.279 30.2427L140.544 22.1958H145.904L148.841 26.7583L151.935 22.1958H157.091L151.466 30.0552L157.607 38.7896H152.216L148.841 33.6489L145.435 38.7896H140.294Z" fill="#004ECA"/>
<g clip-path="url(#clip0_374_769)">
<path d="M30.7398 33.2746C29.9372 33.5376 29.0802 33.6803 28.1893 33.6803C23.6735 33.6803 20.0128 30.0195 20.0128 25.5038C20.0128 24.9855 20.0613 24.4779 20.1535 23.9869L20.1681 23.915C14.509 27.5331 10.7571 33.8714 10.7571 41.0862C10.7571 47.1538 13.4104 52.6022 17.6205 56.3328L17.5458 56.2057C16.9644 54.714 16.6199 52.9661 16.6199 51.2687C16.6199 45.1972 20.6193 40.1943 26.1852 38.6172C28.5814 37.8709 30.3632 35.8125 30.7398 33.2746ZM20.7843 33.9889C19.8468 33.9889 19.0869 33.229 19.0869 32.2915C19.0869 32.1333 19.0869 31.8285 19.0869 31.8285C20.0419 32.2313 20.7659 33.0776 21.2473 33.9889C21.0716 34.05 20.9386 33.9889 20.7843 33.9889Z" fill="#004ECA"/>
<path d="M52.2849 2.03115C50.6137 3.681 48.3117 4.6748 45.7777 4.6748C44.5539 4.6748 43.4524 4.48846 42.3838 4.05756C39.1734 2.6678 35.7679 1.89722 32.047 1.89722C17.4768 1.89722 5.66479 13.7092 5.66479 28.2794C5.66479 33.2882 7.06038 37.9709 9.4847 41.9596L9.46529 41.8752C9.19937 40.6776 9.05962 39.4315 9.05962 38.1543C9.05962 28.6967 16.7266 21.0288 26.1851 21.0288C27.7904 21.0288 29.4946 21.2326 30.9678 21.646C32.4527 22.0662 33.823 22.2632 35.4418 22.2632C44.8994 22.2632 52.5673 14.5963 52.5673 5.13773C52.5664 4.0857 52.4664 3.03077 52.2849 2.03115Z" fill="#004ECA"/>
</g>
<defs>
<clipPath id="clip0_374_769">
<rect width="58.2303" height="58.2303" fill="white"/>
</clipPath>
</defs>
</svg>
